<svg width="64" height="64" viewBox="0 0 64 64" fill="none" xmlns="http://www.w3.org/2000/svg">
  <path d="M32 56V32" stroke="#2D5016" stroke-width="3" stroke-linecap="round"/>
  <path d="M32 32C32 24.268 25.732 18 18 18C10.268 18 4 24.268 4 32C4 39.732 10.268 46 18 46C25.732 46 32 39.732 32 32Z" fill="#87A96B" opacity="0.7"/>
  <path d="M32 32C32 24.268 38.268 18 46 18C53.732 18 60 24.268 60 32C60 39.732 53.732 46 46 46C38.268 46 32 39.732 32 32Z" fill="#2D5016" opacity="0.8"/>
  <circle cx="32" cy="56" r="4" fill="#8B4513"/>
  <path d="M18 32C18 28.6863 20.6863 26 24 26C27.3137 26 30 28.6863 30 32" fill="#2D5016" opacity="0.5"/>
  <path d="M46 32C46 28.6863 43.3137 26 40 26C36.6863 26 34 28.6863 34 32" fill="#87A96B" opacity="0.5"/>
</svg>
