<?xml version="1.0" encoding="UTF-8" standalone="no"?>
<svg width="100" height="100" xmlns="http://www.w3.org/2000/svg">
  <g fill="#FFFFFF" fill-opacity="0.2">
    <path d="M20,30 C30,10 60,10 70,30 C75,40 70,60 40,70 C10,80 5,50 20,30 Z" />
    <path d="M80,70 C90,50 80,30 60,40 C50,45 40,60 50,80 C60,90 75,80 80,70 Z" />
    <path d="M30,80 C20,70 20,50 40,45 C50,43 65,50 70,70 C73,85 45,95 30,80 Z" />
    <path d="M70,20 C60,5 40,5 30,20 C25,30 30,45 50,45 C70,45 80,35 70,20 Z" />
  </g>
</svg>
