<?xml version="1.0" encoding="UTF-8" standalone="no"?>
<svg width="100" height="100" xmlns="http://www.w3.org/2000/svg">
  <g fill="#FFFFFF" fill-opacity="0.15">
    <!-- Chart/Graph Elements -->
    <path d="M10,70 L30,50 L50,60 L70,30 L90,40" stroke="#FFFFFF" stroke-width="2" fill="none"/>
    <circle cx="30" cy="50" r="3"/>
    <circle cx="50" cy="60" r="3"/>
    <circle cx="70" cy="30" r="3"/>
    
    <!-- Currency Symbols -->
    <text x="15" y="25" font-family="Arial" font-size="12" font-weight="bold">₦</text>
    <text x="75" y="75" font-family="Arial" font-size="12" font-weight="bold">₦</text>
    <text x="45" y="90" font-family="Arial" font-size="12" font-weight="bold">₦</text>
    
    <!-- Agricultural Elements -->
    <path d="M85,15 C90,10 95,15 90,20 C85,25 80,20 85,15" />
    <path d="M15,85 C20,80 25,85 20,90 C15,95 10,90 15,85" />
    <path d="M60,85 C55,80 65,75 70,80 C75,85 65,90 60,85" />
  </g>
</svg>
